<mxfile host="app.diagrams.net" modified="2023-06-03T18:11:19.103Z" agent="Mozilla/5.0 (Windows NT 10.0; Win64; x64) AppleWebKit/537.36 (KHTML, like Gecko) Chrome/112.0.0.0 Safari/537.36 OPR/98.0.0.0" etag="rEmU2vywVfOVkHtNejgr" version="21.3.7" type="google">
  <diagram name="PÃ¡gina-1" id="br5Irzi_asU5p5xdHD1o">
    <mxGraphModel grid="1" page="1" gridSize="10" guides="1" tooltips="1" connect="1" arrows="1" fold="1" pageScale="1" pageWidth="827" pageHeight="1169" math="0" shadow="0">
      <root>
        <mxCell id="0" />
        <mxCell id="1" parent="0" />
        <mxCell id="FHUh3xNn9mHMBNgIJQlp-1" value="1a fase&lt;br&gt;" style="rhombus;whiteSpace=wrap;html=1;" vertex="1" parent="1">
          <mxGeometry x="40" y="50" width="80" height="80" as="geometry" />
        </mxCell>
        <mxCell id="FHUh3xNn9mHMBNgIJQlp-2" value="" style="shape=curlyBracket;whiteSpace=wrap;html=1;rounded=1;labelPosition=left;verticalLabelPosition=middle;align=right;verticalAlign=middle;" vertex="1" parent="1">
          <mxGeometry x="120" y="30" width="20" height="120" as="geometry" />
        </mxCell>
        <mxCell id="FHUh3xNn9mHMBNgIJQlp-3" value="Buscar Empleados (Portatil)" style="text;strokeColor=none;fillColor=none;html=1;fontSize=24;fontStyle=1;verticalAlign=middle;align=center;" vertex="1" parent="1">
          <mxGeometry x="260" y="30" width="100" height="40" as="geometry" />
        </mxCell>
        <mxCell id="FHUh3xNn9mHMBNgIJQlp-4" value="Tareas en la tienda (Colocar libros + Atender Clientes [Cobrar en caja])" style="text;html=1;align=center;verticalAlign=middle;resizable=0;points=[];autosize=1;strokeColor=none;fillColor=none;" vertex="1" parent="1">
          <mxGeometry x="140" y="70" width="400" height="30" as="geometry" />
        </mxCell>
        <mxCell id="FHUh3xNn9mHMBNgIJQlp-5" value="UI para los empleados" style="text;html=1;align=center;verticalAlign=middle;resizable=0;points=[];autosize=1;strokeColor=none;fillColor=none;" vertex="1" parent="1">
          <mxGeometry x="140" y="105" width="140" height="30" as="geometry" />
        </mxCell>
        <mxCell id="FHUh3xNn9mHMBNgIJQlp-6" value="Hay&amp;nbsp;" style="text;html=1;align=center;verticalAlign=middle;resizable=0;points=[];autosize=1;strokeColor=none;fillColor=none;" vertex="1" parent="1">
          <mxGeometry x="670" y="40" width="50" height="30" as="geometry" />
        </mxCell>
        <mxCell id="JcE9TNxP5GdSWjWkiyCW-1" value="Text" style="text;html=1;align=center;verticalAlign=middle;resizable=0;points=[];autosize=1;strokeColor=none;fillColor=none;" vertex="1" parent="1">
          <mxGeometry x="135" y="398" width="50" height="30" as="geometry" />
        </mxCell>
      </root>
    </mxGraphModel>
  </diagram>
</mxfile>
